<!-- <svg xmlns="http://www.w3.org/2000/svg" fill="none" class="icon icon-cart-empty" viewBox="0 0 40 40"><path fill="currentColor" fill-rule="evenodd" d="M15.75 11.8h-3.16l-.77 11.6a5 5 0 0 0 4.99 5.34h7.38a5 5 0 0 0 4.99-5.33L28.4 11.8zm0 1h-2.22l-.71 10.67a4 4 0 0 0 3.99 4.27h7.38a4 4 0 0 0 4-4.27l-.72-10.67h-2.22v.63a4.75 4.75 0 1 1-9.5 0zm8.5 0h-7.5v.63a3.75 3.75 0 1 0 7.5 0z"/></svg> -->
<svg class="icon icon-cart-empty" width="40" height="40" viewBox="0 0 40 40" fill="none" xmlns="http://www.w3.org/2000/svg">
<rect x="0.5" y="0.5" width="39" height="39" rx="19.5" fill="#F9F9F9"/>
<rect x="0.5" y="0.5" width="39" height="39" rx="19.5" stroke="#B2B2B2"/>
<path d="M24.1663 25.0001C24.6084 25.0001 25.0323 25.1757 25.3449 25.4882C25.6574 25.8008 25.833 26.2247 25.833 26.6667C25.833 27.1088 25.6574 27.5327 25.3449 27.8453C25.0323 28.1578 24.6084 28.3334 24.1663 28.3334C23.7243 28.3334 23.3004 28.1578 22.9878 27.8453C22.6753 27.5327 22.4997 27.1088 22.4997 26.6667C22.4997 25.7417 23.2413 25.0001 24.1663 25.0001ZM10.833 11.6667H13.558L14.3413 13.3334H26.6663C26.8874 13.3334 27.0993 13.4212 27.2556 13.5775C27.4119 13.7338 27.4997 13.9457 27.4997 14.1667C27.4997 14.3084 27.458 14.4501 27.3997 14.5834L24.4163 19.9751C24.133 20.4834 23.583 20.8334 22.958 20.8334H16.7497L15.9997 22.1917L15.9747 22.2917C15.9747 22.347 15.9966 22.4 16.0357 22.4391C16.0748 22.4781 16.1278 22.5001 16.183 22.5001H25.833V24.1667H15.833C15.391 24.1667 14.9671 23.9912 14.6545 23.6786C14.3419 23.366 14.1663 22.9421 14.1663 22.5001C14.1663 22.2084 14.2413 21.9334 14.3663 21.7001L15.4997 19.6584L12.4997 13.3334H10.833V11.6667ZM15.833 25.0001C16.275 25.0001 16.699 25.1757 17.0115 25.4882C17.3241 25.8008 17.4997 26.2247 17.4997 26.6667C17.4997 27.1088 17.3241 27.5327 17.0115 27.8453C16.699 28.1578 16.275 28.3334 15.833 28.3334C15.391 28.3334 14.9671 28.1578 14.6545 27.8453C14.3419 27.5327 14.1663 27.1088 14.1663 26.6667C14.1663 25.7417 14.908 25.0001 15.833 25.0001ZM23.333 19.1667L25.6497 15.0001H15.1163L17.083 19.1667H23.333Z" fill="black"/>
</svg>
